# OBJ generated by ONSHAPE BY PTC INC, 1.195 Units = meters
mtllib stove cover (level 2) - hiddenthreadz - 03202025.mtl
g Part 1
v 0.0483204 -0.098298 -0.00481253 
v 0.0483204 -0.092202 -0.00481253 
v -0.047836 -0.092202 -0.00481253 
v -0.047836 -0.098298 -0.00481253 
v -0.047836 -0.095758 -0.00749985 
v -0.047836 -0.092202 -0.0648644 
v -0.047836 -0.095758 -0.0621771 
v -0.047836 -0.098298 -0.0648644 
v -0.047836 -0.098298 -0.0621771 
v -0.047836 -0.098298 -0.00749985 
v 0.0483204 -0.098298 -0.0648644 
v 0.0483204 -0.092202 -0.0648644 
v 0.0483204 -0.095758 -0.0621771 
v 0.0483204 -0.095758 -0.00749985 
v 0.0483204 -0.098298 -0.00749985 
v 0.0483204 -0.098298 -0.0621771 
v 0.0359709 -0.095758 -0.0578407 
v 0.0359709 -0.095758 -0.0108903 
v -0.0359709 -0.095758 -0.0108903 
v -0.0359709 -0.095758 -0.0578407 
v 0.0359709 -0.092202 -0.0578407 
v -0.0359709 -0.092202 -0.0578407 
v -0.0359709 -0.092202 -0.0108903 
v 0.0359709 -0.092202 -0.0108903 
v 0.0360211 -0.098298 -0.0067559 
v 0.0360211 -0.098298 -0.00567127 
v -0.0360211 -0.098298 -0.00567127 
v -0.0360211 -0.098298 -0.0067559 
v 0.0360211 -0.099187 -0.0067559 
v -0.0360211 -0.099187 -0.0067559 
v 0.0360211 -0.099187 -0.00567127 
v -0.0360211 -0.099187 -0.00567127 
vn 0 0 1 
vn -1 0 0 
vn 1 0 0 
vn 0 0 -1 
vn 0 0 1 
vn 0 -1 0 
vn 0 1 0 
vn 0 0 1 
vn -1 0 0 
vn 0 0 -1 
vn 1 0 0 
vn 0 -1 0 
vn 0 0 -1 
vn 1 0 0 
vn 0 0 1 
vn -1 0 0 
vn 0 -1 0 
usemtl 0.647059_0.647059_0.647059_0.000000_0.000000
o mesh0
f 1//1 2//1 3//1 
f 3//1 4//1 1//1 
o mesh1
f 4//2 3//2 5//2 
f 3//2 6//2 7//2 
f 7//2 5//2 3//2 
f 8//2 9//2 7//2 
f 7//2 6//2 8//2 
f 5//2 10//2 4//2 
o mesh2
f 11//3 12//3 13//3 
f 2//3 14//3 13//3 
f 13//3 12//3 2//3 
f 1//3 15//3 14//3 
f 14//3 2//3 1//3 
f 13//3 16//3 11//3 
o mesh3
f 8//4 6//4 12//4 
f 12//4 11//4 8//4 
o mesh4
f 10//4 5//4 14//4 
f 14//4 15//4 10//4 
o mesh5
f 9//5 16//5 13//5 
f 13//5 7//5 9//5 
o mesh6
f 11//6 16//6 9//6 
f 9//6 8//6 11//6 
o mesh7
f 7//6 13//6 17//6 
f 14//6 18//6 17//6 
f 17//6 13//6 14//6 
f 5//6 19//6 18//6 
f 18//6 14//6 5//6 
f 5//6 7//6 20//6 
f 20//6 19//6 5//6 
f 17//6 20//6 7//6 
o mesh8
f 2//7 12//7 21//7 
f 6//7 22//7 21//7 
f 3//7 23//7 22//7 
f 3//7 2//7 24//7 
f 21//7 12//7 6//7 
f 24//7 23//7 3//7 
f 22//7 6//7 3//7 
f 21//7 24//7 2//7 
o mesh9
f 22//8 20//8 17//8 
f 17//8 21//8 22//8 
o mesh10
f 17//9 18//9 24//9 
f 24//9 21//9 17//9 
o mesh11
f 18//10 19//10 23//10 
f 23//10 24//10 18//10 
o mesh12
f 23//11 19//11 20//11 
f 20//11 22//11 23//11 
o mesh13
f 10//12 15//12 25//12 
f 15//12 1//12 26//12 
f 26//12 25//12 15//12 
f 4//12 27//12 26//12 
f 26//12 1//12 4//12 
f 10//12 28//12 27//12 
f 27//12 4//12 10//12 
f 25//12 28//12 10//12 
o mesh14
f 29//13 30//13 28//13 
f 28//13 25//13 29//13 
o mesh15
f 29//14 25//14 26//14 
f 26//14 31//14 29//14 
o mesh16
f 31//15 26//15 27//15 
f 27//15 32//15 31//15 
o mesh17
f 30//16 32//16 27//16 
f 27//16 28//16 30//16 
o mesh18
f 32//17 30//17 29//17 
f 29//17 31//17 32//17 
