# OBJ generated by ONSHAPE BY PTC INC, 1.194 Units = meters
mtllib book-level1.mtl
g Part 1
v 0.0196318 0.00121267 -0.0121666 
v 0.0196318 0.00100353 -0.0121666 
v -0.0185029 0.00100353 -0.0121666 
v -0.0185029 0.00121267 -0.0121666 
v 0.0196318 0.00100353 0.011742 
v 0.0196318 0.00121267 0.011742 
v 0.019708 0.00121267 0.011742 
v 0.019708 0.00100353 0.011742 
v -0.0185029 0.00100353 0.011742 
v -0.0185029 0.00121267 0.011742 
v -0.0186045 0.00100353 0.011742 
v -0.0186045 0.00121267 0.011742 
v -0.0186045 0.00121267 -0.0122428 
v 0.019708 0.00121267 -0.0122428 
v 0.019708 0.00100353 -0.0122428 
v -0.0186045 0.00100353 -0.0122428 
v -0.0186045 0.00191808 -0.0122428 
v 0.019708 0.00191808 -0.0122428 
v 0.019708 0.00191808 0.011742 
v 0.0196318 0.00191808 -0.0121666 
v -0.0185029 0.00191808 -0.0121666 
v -0.0186045 0.00191808 0.011742 
v -0.0185029 0.00191808 0.011742 
v 0.0196318 0.00191808 0.011742 
v 0.0196318 0.00212722 -0.0121666 
v -0.0185029 0.00212722 -0.0121666 
v 0.0196318 0.00212722 0.011742 
v 0.019708 0.00212722 0.011742 
v -0.0186045 0.00212722 0.011742 
v -0.0185029 0.00212722 0.011742 
v -0.0186045 0.00212722 -0.0122428 
v 0.019708 0.00212722 -0.0122428 
v -0.0186045 0.00287056 -0.0122428 
v 0.019708 0.00287056 -0.0122428 
v 0.019708 0.00287056 0.011742 
v 0.0196318 0.00287056 -0.0121666 
v -0.0185029 0.00287056 -0.0121666 
v -0.0186045 0.00287056 0.011742 
v -0.0185029 0.00287056 0.011742 
v 0.0196318 0.00287056 0.011742 
v 0.0196318 0.0030797 -0.0121666 
v -0.0185029 0.0030797 -0.0121666 
v 0.0196318 0.0030797 0.011742 
v 0.019708 0.0030797 0.011742 
v -0.0186045 0.0030797 0.011742 
v -0.0185029 0.0030797 0.011742 
v -0.0186045 0.0030797 -0.0122428 
v 0.019708 0.0030797 -0.0122428 
v -0.0186045 0.00372425 -0.0122428 
v 0.019708 0.00372425 -0.0122428 
v 0.019708 0.00372425 0.011742 
v 0.0196318 0.00372425 -0.0121666 
v -0.0185029 0.00372425 -0.0121666 
v -0.0186045 0.00372425 0.011742 
v -0.0185029 0.00372425 0.011742 
v 0.0196318 0.00372425 0.011742 
v 0.0196318 0.00393339 -0.0121666 
v -0.0185029 0.00393339 -0.0121666 
v 0.0196318 0.00393339 0.011742 
v 0.019708 0.00393339 0.011742 
v -0.0186045 0.00393339 0.011742 
v -0.0185029 0.00393339 0.011742 
v -0.0186045 0.00393339 -0.0122428 
v 0.019708 0.00393339 -0.0122428 
v -0.0186045 0.00446679 -0.0122428 
v 0.019708 0.00446679 -0.0122428 
v -0.0185029 0.00446679 -0.0121666 
v 0.0196318 0.00446679 -0.0121666 
v -0.0186045 0.00446679 0.011742 
v -0.0185029 0.00446679 0.011742 
v 0.019708 0.00446679 -0.0121666 
v -0.0186045 0.00467593 0.011742 
v -0.0185029 0.00467593 0.011742 
v -0.0185029 0.00467593 -0.0121666 
v 0.0196318 0.00467593 -0.0121666 
v 0.019708 0.00445779 -0.0121666 
v 0.0196318 0.00445779 -0.0121666 
v 0.0196318 0.00445779 0.0117417 
v 0.0196318 0.00467593 0.0117417 
v 0.019708 0.00467593 0.0117417 
v 0.019708 0.00445779 0.0117417 
v -0.0186045 0.00467593 -0.0122428 
v 0.019708 0.00467593 -0.0122428 
v -0.0186045 0.00507357 -0.0122428 
v 0.019708 0.00507357 -0.0122428 
v 0.019708 0.000457601 0.011752 
v 0.019708 0.00507357 0.011752 
v 0.019708 0.000457601 -0.0122428 
v 0.0201144 0.00507357 0.011752 
v 0.0201144 0.000457601 0.011752 
v 0.0201144 0.000457601 -0.0122428 
v -0.0186045 0.000445462 0.0118296 
v -0.0186045 0.00507357 0.0118296 
v -0.0186045 0.000445462 -0.0122428 
v -0.0191379 0.000445462 -0.0122428 
v -0.0191379 0.000445462 0.0118296 
v -0.0191379 0.00507357 0.0118296 
v -0.0191379 0.000425423 -0.0122428 
v 0.0201144 0.000425423 -0.0122428 
v -0.0191379 0.00507357 -0.0127 
v 0.0201144 0.00507357 -0.0127 
v -0.0191379 0.00551294 -0.0127 
v 0.0201144 0.00551294 -0.0127 
v -0.0191379 0.00551294 0.0118415 
v 0.0201144 0.00551294 0.0118415 
v 0.0201144 0.000425423 -0.0127 
v -0.0191379 0.000425423 -0.0127 
v -0.0191379 0 -0.0127 
v 0.0201144 0 -0.0127 
v 0.0201144 0 0.0118415 
v -0.0191379 0 0.0118415 
v -0.0191379 0.000220509 0.012416 
v -0.0191379 0.00028405 0.0124795 
v -0.0191379 7.42207e-05 0.0121907 
v -0.0191379 0.000115016 0.0122708 
v -0.0191379 0.000353884 0.012536 
v -0.0191379 0.000163958 0.0123461 
v -0.0191379 0.00534898 0.0123461 
v -0.0191379 0.00539793 0.0122708 
v -0.0191379 0.000429247 0.012585 
v -0.0191379 0.000509313 0.0126258 
v -0.0191379 4.70292e-06 0.0119312 
v -0.0191379 1.87602e-05 0.01202 
v -0.0191379 0.00529243 0.012416 
v -0.0191379 0.0050837 0.012585 
v -0.0191379 0.00515906 0.012536 
v -0.0191379 0.00491974 0.012658 
v -0.0191379 0.00500363 0.0126258 
v -0.0191379 0.000593205 0.012658 
v -0.0191379 0.000680003 0.0126812 
v -0.0191379 4.20177e-05 0.0121068 
v -0.0191379 0.00522889 0.0124795 
v -0.0191379 0.00474419 0.0126953 
v -0.0191379 0.00483294 0.0126812 
v -0.0191379 0.00465445 0.0127 
v -0.0191379 0.000858494 0.0127 
v -0.0191379 0.000768757 0.0126953 
v -0.0191379 0.00549418 0.01202 
v -0.0191379 0.00550824 0.0119312 
v -0.0191379 0.00543872 0.0121907 
v -0.0191379 0.00547092 0.0121068 
v 0.0201144 0.0050837 0.012585 
v 0.0201144 0.00500363 0.0126258 
v 0.0201144 0.00522889 0.0124795 
v 0.0201144 0.00515906 0.012536 
v 0.0201144 0.00543872 0.0121907 
v 0.0201144 0.00539793 0.0122708 
v 0.0201144 0.00529243 0.012416 
v 0.0201144 0.00534898 0.0123461 
v 0.0201144 0.000163958 0.0123461 
v 0.0201144 0.000115016 0.0122708 
v 0.0201144 0.000353884 0.012536 
v 0.0201144 0.00028405 0.0124795 
v 0.0201144 0.000220509 0.012416 
v 0.0201144 0.000429247 0.012585 
v 0.0201144 0.00491974 0.012658 
v 0.0201144 0.00483294 0.0126812 
v 0.0201144 0.00547092 0.0121068 
v 0.0201144 0.000593205 0.012658 
v 0.0201144 0.000509313 0.0126258 
v 0.0201144 0.000768757 0.0126953 
v 0.0201144 0.000680003 0.0126812 
v 0.0201144 4.20177e-05 0.0121068 
v 0.0201144 1.87602e-05 0.01202 
v 0.0201144 0.000858494 0.0127 
v 0.0201144 0.00465445 0.0127 
v 0.0201144 0.00474419 0.0126953 
v 0.0201144 7.42207e-05 0.0121907 
v 0.0201144 4.70292e-06 0.0119312 
v 0.0201144 0.00550824 0.0119312 
v 0.0201144 0.00549418 0.01202 
vn 0 0 -1 
vn 1 0 0 
vn -1 0 0 
vn 0 0 -1 
vn 0 -1 0 
vn 0 1 0 
vn 0 0 -1 
vn 1 0 0 
vn -1 0 0 
vn 0 -1 0 
vn 0 0 -1 
vn 0 1 0 
vn 1 0 0 
vn 0 0 -1 
vn -1 0 0 
vn 0 -1 0 
vn 0 0 -1 
vn 0 1 0 
vn 1 0 0 
vn 0 0 -1 
vn -1 0 0 
vn 0 -1 0 
vn 0 0 -1 
vn 0 1 0 
vn -1 0 0 
vn 0 0 -1 
vn 0 0 1 
vn 1 0 0 
vn 0 0 -1 
vn 0 1 0 
vn 0 -1 0 
vn 0 0 -1 
vn 1 0 0 
vn 0 1 0 
vn -1 0 0 
vn 0 0 -1 
vn 0 -1 0 
vn 0 1 0 
vn 0 0 -1 
vn 0 -1 0 
vn -1 0 0 
vn 1 0 0 
vn 0 0 1 
vn 0 -1 -1.83697e-16 
vn 0 -0.994522 0.104528 
vn 0 -0.978148 0.207912 
vn 0 -0.951057 0.309017 
vn 0 -0.913545 0.406737 
vn 0 -0.866025 0.5 
vn 0 -0.809017 0.587785 
vn 0 -0.743145 0.669131 
vn 0 -0.669131 0.743145 
vn 0 -0.587785 0.809017 
vn 0 -0.5 0.866025 
vn 0 -0.406737 0.913545 
vn 0 -0.309017 0.951057 
vn 0 -0.207912 0.978148 
vn 0 -0.104528 0.994522 
vn 0 -2.44929e-16 1 
vn 0 1 -6.12323e-17 
vn 0 0.994522 0.104528 
vn 0 0.978148 0.207912 
vn 0 0.951057 0.309017 
vn 0 0.913545 0.406737 
vn 0 0.866025 0.5 
vn 0 0.809017 0.587785 
vn 0 0.743145 0.669131 
vn 0 0.669131 0.743145 
vn 0 0.587785 0.809017 
vn 0 0.5 0.866025 
vn 0 0.406737 0.913545 
vn 0 0.309017 0.951057 
vn 0 0.207912 0.978148 
vn 0 0.104528 0.994522 
vn 0 1.22465e-16 1 
usemtl 0.615686_0.811765_0.929412_0.000000_0.000000
o mesh0
f 1//1 2//1 3//1 
f 3//1 4//1 1//1 
o mesh1
f 5//2 2//2 1//2 
f 1//2 6//2 5//2 
o mesh2
f 6//1 7//1 8//1 
f 8//1 5//1 6//1 
o mesh3
f 3//3 9//3 10//3 
f 10//3 4//3 3//3 
o mesh4
f 9//4 11//4 12//4 
f 12//4 10//4 9//4 
o mesh5
f 12//5 13//5 4//5 
f 14//5 1//5 4//5 
f 4//5 13//5 14//5 
f 7//5 6//5 1//5 
f 1//5 14//5 7//5 
f 4//5 10//5 12//5 
o mesh6
f 8//6 15//6 2//6 
f 15//6 16//6 3//6 
f 3//6 2//6 15//6 
f 11//6 9//6 3//6 
f 3//6 16//6 11//6 
f 2//6 5//6 8//6 
o mesh7
f 14//7 13//7 17//7 
f 17//7 18//7 14//7 
o mesh8
f 19//6 18//6 20//6 
f 18//6 17//6 21//6 
f 21//6 20//6 18//6 
f 22//6 23//6 21//6 
f 21//6 17//6 22//6 
f 20//6 24//6 19//6 
o mesh9
f 25//7 20//7 21//7 
f 21//7 26//7 25//7 
o mesh10
f 27//7 28//7 19//7 
f 19//7 24//7 27//7 
o mesh11
f 24//8 20//8 25//8 
f 25//8 27//8 24//8 
o mesh12
f 23//7 22//7 29//7 
f 29//7 30//7 23//7 
o mesh13
f 30//9 26//9 21//9 
f 21//9 23//9 30//9 
o mesh14
f 29//10 31//10 26//10 
f 32//10 25//10 26//10 
f 26//10 31//10 32//10 
f 28//10 27//10 25//10 
f 25//10 32//10 28//10 
f 26//10 30//10 29//10 
o mesh15
f 32//11 31//11 33//11 
f 33//11 34//11 32//11 
o mesh16
f 35//12 34//12 36//12 
f 34//12 33//12 37//12 
f 37//12 36//12 34//12 
f 38//12 39//12 37//12 
f 37//12 33//12 38//12 
f 36//12 40//12 35//12 
o mesh17
f 41//11 36//11 37//11 
f 37//11 42//11 41//11 
o mesh18
f 43//11 44//11 35//11 
f 35//11 40//11 43//11 
o mesh19
f 40//13 36//13 41//13 
f 41//13 43//13 40//13 
o mesh20
f 39//14 38//14 45//14 
f 45//14 46//14 39//14 
o mesh21
f 46//15 42//15 37//15 
f 37//15 39//15 46//15 
o mesh22
f 45//16 47//16 42//16 
f 48//16 41//16 42//16 
f 42//16 47//16 48//16 
f 44//16 43//16 41//16 
f 41//16 48//16 44//16 
f 42//16 46//16 45//16 
o mesh23
f 48//17 47//17 49//17 
f 49//17 50//17 48//17 
o mesh24
f 51//18 50//18 52//18 
f 50//18 49//18 53//18 
f 53//18 52//18 50//18 
f 54//18 55//18 53//18 
f 53//18 49//18 54//18 
f 52//18 56//18 51//18 
o mesh25
f 57//17 52//17 53//17 
f 53//17 58//17 57//17 
o mesh26
f 59//17 60//17 51//17 
f 51//17 56//17 59//17 
o mesh27
f 56//19 52//19 57//19 
f 57//19 59//19 56//19 
o mesh28
f 55//20 54//20 61//20 
f 61//20 62//20 55//20 
o mesh29
f 62//21 58//21 53//21 
f 53//21 55//21 62//21 
o mesh30
f 61//22 63//22 58//22 
f 64//22 57//22 58//22 
f 58//22 63//22 64//22 
f 60//22 59//22 57//22 
f 57//22 64//22 60//22 
f 58//22 62//22 61//22 
o mesh31
f 64//23 63//23 65//23 
f 65//23 66//23 64//23 
o mesh32
f 66//24 65//24 67//24 
f 67//24 68//24 66//24 
f 69//24 70//24 67//24 
f 67//24 65//24 69//24 
f 68//24 71//24 66//24 
o mesh33
f 70//23 69//23 72//23 
f 72//23 73//23 70//23 
o mesh34
f 73//25 74//25 67//25 
f 67//25 70//25 73//25 
o mesh35
f 75//26 68//26 67//26 
f 67//26 74//26 75//26 
o mesh36
f 76//27 71//27 68//27 
f 68//27 77//27 76//27 
o mesh37
f 78//28 77//28 68//28 
f 68//28 79//28 78//28 
f 68//28 75//28 79//28 
o mesh38
f 79//29 80//29 81//29 
f 81//29 78//29 79//29 
o mesh39
f 78//30 81//30 76//30 
f 76//30 77//30 78//30 
o mesh40
f 72//31 82//31 74//31 
f 83//31 75//31 74//31 
f 74//31 82//31 83//31 
f 80//31 79//31 75//31 
f 75//31 83//31 80//31 
f 74//31 73//31 72//31 
o mesh41
f 83//32 82//32 84//32 
f 84//32 85//32 83//32 
o mesh42
f 86//33 44//33 51//33 
f 86//33 28//33 35//33 
f 86//33 7//33 19//33 
f 81//33 86//33 60//33 
f 35//33 44//33 86//33 
f 86//33 8//33 7//33 
f 60//33 76//33 81//33 
f 19//33 28//33 86//33 
f 50//33 51//33 44//33 
f 51//33 60//33 86//33 
f 32//33 34//33 35//33 
f 60//33 64//33 76//33 
f 18//33 19//33 7//33 
f 44//33 48//33 50//33 
f 85//33 87//33 80//33 
f 87//33 86//33 81//33 
f 35//33 28//33 32//33 
f 88//33 15//33 8//33 
f 81//33 80//33 87//33 
f 8//33 86//33 88//33 
f 7//33 14//33 18//33 
f 66//33 71//33 76//33 
f 76//33 64//33 66//33 
f 80//33 83//33 85//33 
o mesh43
f 87//32 89//32 90//32 
f 90//32 86//32 87//32 
o mesh44
f 86//34 90//34 91//34 
f 91//34 88//34 86//34 
o mesh45
f 92//35 22//35 12//35 
f 17//35 13//35 12//35 
f 12//35 22//35 17//35 
f 92//35 38//35 29//35 
f 92//35 69//35 61//35 
f 29//35 22//35 92//35 
f 31//35 29//35 38//35 
f 61//35 54//35 92//35 
f 38//35 33//35 31//35 
f 54//35 45//35 92//35 
f 45//35 38//35 92//35 
f 54//35 47//35 45//35 
f 12//35 11//35 92//35 
f 65//35 63//35 61//35 
f 61//35 69//35 65//35 
f 93//35 72//35 69//35 
f 69//35 92//35 93//35 
f 84//35 82//35 72//35 
f 94//35 92//35 11//35 
f 72//35 93//35 84//35 
f 54//35 49//35 47//35 
f 11//35 16//35 94//35 
o mesh46
f 94//34 95//34 96//34 
f 96//34 92//34 94//34 
o mesh47
f 92//36 96//36 97//36 
f 97//36 93//36 92//36 
o mesh48
f 88//36 98//36 94//36 
f 94//36 15//36 88//36 
f 99//36 98//36 88//36 
f 98//36 95//36 94//36 
f 94//36 16//36 15//36 
f 88//36 91//36 99//36 
o mesh49
f 97//37 100//37 84//37 
f 101//37 85//37 84//37 
f 84//37 100//37 101//37 
f 89//37 87//37 85//37 
f 85//37 101//37 89//37 
f 84//37 93//37 97//37 
o mesh50
f 102//36 103//36 101//36 
f 101//36 100//36 102//36 
o mesh51
f 103//38 102//38 104//38 
f 104//38 105//38 103//38 
o mesh52
f 99//38 106//38 107//38 
f 107//38 98//38 99//38 
o mesh53
f 108//39 107//39 106//39 
f 106//39 109//39 108//39 
o mesh54
f 108//40 109//40 110//40 
f 110//40 111//40 108//40 
o mesh55
f 96//41 112//41 113//41 
f 96//41 114//41 115//41 
f 113//41 116//41 96//41 
f 115//41 117//41 96//41 
f 97//41 118//41 119//41 
f 96//41 120//41 121//41 
f 117//41 112//41 96//41 
f 96//41 122//41 123//41 
f 97//41 124//41 118//41 
f 97//41 125//41 126//41 
f 97//41 127//41 128//41 
f 96//41 129//41 130//41 
f 116//41 120//41 96//41 
f 123//41 131//41 96//41 
f 97//41 132//41 124//41 
f 128//41 125//41 97//41 
f 97//41 133//41 134//41 
f 121//41 129//41 96//41 
f 96//41 111//41 122//41 
f 98//41 111//41 96//41 
f 126//41 132//41 97//41 
f 97//41 135//41 133//41 
f 96//41 136//41 135//41 
f 130//41 137//41 96//41 
f 108//41 111//41 98//41 
f 96//41 95//41 98//41 
f 134//41 127//41 97//41 
f 137//41 136//41 96//41 
f 97//41 138//41 139//41 
f 97//41 140//41 141//41 
f 131//41 114//41 96//41 
f 135//41 97//41 96//41 
f 102//41 100//41 97//41 
f 141//41 138//41 97//41 
f 119//41 140//41 97//41 
f 139//41 104//41 97//41 
f 97//41 104//41 102//41 
f 98//41 107//41 108//41 
o mesh56
f 89//42 142//42 143//42 
f 89//42 144//42 145//42 
f 145//42 142//42 89//42 
f 89//42 146//42 147//42 
f 89//42 148//42 144//42 
f 147//42 149//42 89//42 
f 90//42 150//42 151//42 
f 90//42 152//42 153//42 
f 149//42 148//42 89//42 
f 90//42 154//42 150//42 
f 90//42 155//42 152//42 
f 89//42 156//42 157//42 
f 89//42 158//42 146//42 
f 153//42 154//42 90//42 
f 90//42 159//42 160//42 
f 90//42 161//42 162//42 
f 143//42 156//42 89//42 
f 90//42 163//42 164//42 
f 160//42 155//42 90//42 
f 90//42 165//42 161//42 
f 90//42 89//42 166//42 
f 157//42 167//42 89//42 
f 90//42 168//42 163//42 
f 162//42 159//42 90//42 
f 167//42 166//42 89//42 
f 99//42 91//42 90//42 
f 164//42 169//42 90//42 
f 89//42 170//42 171//42 
f 166//42 165//42 90//42 
f 169//42 110//42 90//42 
f 89//42 105//42 170//42 
f 103//42 105//42 89//42 
f 90//42 110//42 99//42 
f 109//42 106//42 99//42 
f 89//42 101//42 103//42 
f 99//42 110//42 109//42 
f 151//42 168//42 90//42 
f 171//42 158//42 89//42 
o mesh57
f 166//43 135//43 136//43 
f 136//43 165//43 166//43 
o mesh58
f 111//44 110//44 169//45 
f 122//45 169//45 164//46 
f 123//46 164//46 163//47 
f 131//47 163//47 168//48 
f 114//48 168//48 151//49 
f 115//49 151//49 150//50 
f 117//50 150//50 154//51 
f 112//51 154//51 153//52 
f 113//52 153//52 152//53 
f 116//53 152//53 155//54 
f 120//54 155//54 160//55 
f 121//55 160//55 159//56 
f 129//56 159//56 162//57 
f 130//57 162//57 161//58 
f 137//58 161//58 165//59 
f 165//59 136//59 137//58 
f 161//58 137//58 130//57 
f 162//57 130//57 129//56 
f 159//56 129//56 121//55 
f 160//55 121//55 120//54 
f 155//54 120//54 116//53 
f 152//53 116//53 113//52 
f 153//52 113//52 112//51 
f 154//51 112//51 117//50 
f 150//50 117//50 115//49 
f 151//49 115//49 114//48 
f 168//48 114//48 131//47 
f 163//47 131//47 123//46 
f 164//46 123//46 122//45 
f 169//45 122//45 111//44 
o mesh59
f 105//60 104//60 139//61 
f 170//61 139//61 138//62 
f 171//62 138//62 141//63 
f 158//63 141//63 140//64 
f 146//64 140//64 119//65 
f 147//65 119//65 118//66 
f 149//66 118//66 124//67 
f 148//67 124//67 132//68 
f 144//68 132//68 126//69 
f 145//69 126//69 125//70 
f 142//70 125//70 128//71 
f 143//71 128//71 127//72 
f 156//72 127//72 134//73 
f 157//73 134//73 133//74 
f 167//74 133//74 135//75 
f 135//75 166//75 167//74 
f 133//74 167//74 157//73 
f 134//73 157//73 156//72 
f 127//72 156//72 143//71 
f 128//71 143//71 142//70 
f 125//70 142//70 145//69 
f 126//69 145//69 144//68 
f 132//68 144//68 148//67 
f 124//67 148//67 149//66 
f 118//66 149//66 147//65 
f 119//65 147//65 146//64 
f 140//64 146//64 158//63 
f 141//63 158//63 171//62 
f 138//62 171//62 170//61 
f 139//61 170//61 105//60 
