# OBJ generated by ONSHAPE BY PTC INC, 1.193 Units = meters
mtllib desk.level1.220.mtl
g Part 1
v 0.0355315 -0.017526 0.0459714 
v 0.0355315 0.017526 0.0459714 
v -0.0355315 0.017526 0.0459714 
v -0.0355315 -0.017526 0.0459714 
v 0.0355315 0.017526 0.00164578 
v 0.0355315 0.0125115 0.0430478 
v 0.0355315 -0.0125115 0.0430478 
v 0.0355315 -0.017526 0.00164578 
v 0.0355315 -0.0125115 0.00164578 
v 0.0355315 0.0125115 0.00164578 
v 0.0303114 0.0125115 0.0430478 
v 0.0303114 0.0125115 0.00164578 
v 0.0303114 0.017526 0.0430478 
v 0.0303114 0.017526 0.00164578 
v 0.0303114 -0.0125115 0.00164578 
v 0.0303114 -0.0125115 0.0430478 
v 0.0303114 -0.017526 0.00164578 
v 0.0303114 -0.017526 0.0430478 
v -0.0303114 -0.017526 0.0430478 
v -0.0355315 -0.017526 0.00164578 
v -0.0303114 -0.017526 0.00164578 
v -0.0303114 -0.0125115 0.00164578 
v -0.0303114 -0.0125115 0.0430478 
v -0.0355315 -0.0125115 0.00164578 
v -0.0355315 -0.0125115 0.0430478 
v -0.0355315 0.0125115 0.0430478 
v -0.0303114 0.0125115 0.0430478 
v -0.0303114 0.017526 0.0430478 
v -0.0355315 0.017526 0.00164578 
v -0.0355315 0.0125115 0.00164578 
v -0.0303114 0.017526 0.00164578 
v -0.0303114 0.0125115 0.00164578 
vn 0 0 1 
vn 1 0 0 
vn 0 -1 0 
vn -1 0 0 
vn 0 0 -1 
vn 0 1 0 
vn -1 0 0 
vn 0 0 -1 
vn 0 -1 0 
vn 1 0 0 
vn 0 1 0 
vn 0 0 -1 
vn -1 0 0 
vn 0 1 0 
vn 1 0 0 
vn 0 -1 0 
vn 0 0 -1 
usemtl 0.615686_0.811765_0.929412_0.000000_0.000000
o mesh0
f 1//1 2//1 3//1 
f 3//1 4//1 1//1 
o mesh1
f 5//2 2//2 6//2 
f 2//2 1//2 7//2 
f 7//2 6//2 2//2 
f 8//2 9//2 7//2 
f 7//2 1//2 8//2 
f 6//2 10//2 5//2 
o mesh2
f 10//3 6//3 11//3 
f 11//3 12//3 10//3 
o mesh3
f 12//4 11//4 13//4 
f 13//4 14//4 12//4 
o mesh4
f 10//5 12//5 14//5 
f 14//5 5//5 10//5 
o mesh5
f 15//6 16//6 7//6 
f 7//6 9//6 15//6 
o mesh6
f 17//7 18//7 16//7 
f 16//7 15//7 17//7 
o mesh7
f 17//8 15//8 9//8 
f 9//8 8//8 17//8 
o mesh8
f 8//9 1//9 18//9 
f 1//9 4//9 19//9 
f 19//9 18//9 1//9 
f 20//9 21//9 19//9 
f 19//9 4//9 20//9 
f 18//9 17//9 8//9 
o mesh9
f 22//10 23//10 19//10 
f 19//10 21//10 22//10 
o mesh10
f 24//11 25//11 23//11 
f 23//11 22//11 24//11 
o mesh11
f 21//12 20//12 24//12 
f 24//12 22//12 21//12 
o mesh12
f 26//12 27//12 23//12 
f 27//12 16//12 23//12 
f 23//12 25//12 26//12 
f 19//12 23//12 16//12 
f 7//12 16//12 11//12 
f 28//12 13//12 11//12 
f 16//12 18//12 19//12 
f 11//12 16//12 28//12 
f 11//12 6//12 7//12 
f 27//12 28//12 16//12 
o mesh13
f 20//13 4//13 25//13 
f 4//13 3//13 26//13 
f 26//13 25//13 4//13 
f 29//13 30//13 26//13 
f 26//13 3//13 29//13 
f 25//13 24//13 20//13 
o mesh14
f 29//14 3//14 28//14 
f 3//14 2//14 13//14 
f 13//14 28//14 3//14 
f 5//14 14//14 13//14 
f 13//14 2//14 5//14 
f 28//14 31//14 29//14 
o mesh15
f 31//15 28//15 27//15 
f 27//15 32//15 31//15 
o mesh16
f 32//16 27//16 26//16 
f 26//16 30//16 32//16 
o mesh17
f 30//17 29//17 31//17 
f 31//17 32//17 30//17 
